<svg width="30" height="30" viewBox="0 0 30 30" fill="none" xmlns="http://www.w3.org/2000/svg">
<path id="Vector" d="M22.3046 19.8067C22.0029 19.5037 21.593 19.3333 21.1654 19.3333H20.7107C20.5862 19.3333 20.4666 19.285 20.377 19.1986C20.1935 19.0217 20.181 18.7329 20.3391 18.5329C21.2331 17.4016 21.8933 16.1018 22.2793 14.7093C22.7057 13.1707 22.7868 11.5569 22.5167 9.98329C21.7334 5.34996 17.8667 1.64996 13.2 1.08329C11.5594 0.875734 9.893 1.04624 8.32839 1.58177C6.76379 2.1173 5.34243 3.00366 4.17307 4.17301C3.00372 5.34237 2.11736 6.76373 1.58183 8.32833C1.04631 9.89294 0.875795 11.5593 1.08335 13.2C1.65002 17.8666 5.35002 21.7333 9.98335 22.5166C11.5569 22.7867 13.1708 22.7056 14.7094 22.2792C16.1019 21.8933 17.4016 21.2331 18.5329 20.339C18.733 20.1809 19.0217 20.1935 19.1987 20.377C19.2851 20.4666 19.3334 20.5862 19.3334 20.7106V21.1664C19.3334 21.5934 19.503 22.0029 19.8049 22.3048L26.4167 28.9166C27.1 29.6 28.2167 29.6 28.9 28.9166C29.5833 28.2333 29.5833 27.1166 28.9 26.4333L22.3046 19.8067ZM11.8334 19.3333C7.68335 19.3333 4.33335 15.9833 4.33335 11.8333C4.33335 7.68329 7.68335 4.33329 11.8334 4.33329C15.9834 4.33329 19.3334 7.68329 19.3334 11.8333C19.3334 15.9833 15.9834 19.3333 11.8334 19.3333Z" fill="#B9B9B9"/>
</svg>
